PathFileType	4	(X/Y/Z)	1103211_Jog01.trc	
DataRate	CameraRate	NumFrames	NumMarkers	Units	OrigDataRate	OrigDataStartFrame	OrigNumFrames
300	300	5	69	mm	300	715	258
Frame#	Time	CLAV			STRN			RSHO			LSHO			C7			T10			RBAK			RASI			LASI			RPSI			LPSI			LGTR			RGTR			LHJC			RHJC			LANK			RANK			LHEE			RHEE			LMT5			RMT5			LTOE			RTOE			RELB			RWRA			RWRB			RFIN			LELB			LWRB			LWRA			LFIN			RFP1			RFP2			RFP3			RFM1			RFM2			RFM3			RFA1			RFA2			RFA3			LFP1			LFP2			LFP3			LFM1			LFM2			LFM3			LFA1			LFA2			LFA3			LKNE			RKNE			RTP1			RTP2			RTP3			RTA1			RTA2			RTA3			LTP1			LTP2			LTP3			LTA1			LFHD			LBHD			RFHD			RBHD			LUPA			LFRA			RUPA			RFRA			
		X1	Y1	Z1	X2	Y2	Z2	X3	Y3	Z3	X4	Y4	Z4	X5	Y5	Z5	X6	Y6	Z6	X7	Y7	Z7	X8	Y8	Z8	X9	Y9	Z9	X10	Y10	Z10	X11	Y11	Z11	X12	Y12	Z12	X13	Y13	Z13	X14	Y14	Z14	X15	Y15	Z15	X16	Y16	Z16	X17	Y17	Z17	X18	Y18	Z18	X19	Y19	Z19	X20	Y20	Z20	X21	Y21	Z21	X22	Y22	Z22	X23	Y23	Z23	X24	Y24	Z24	X25	Y25	Z25	X26	Y26	Z26	X27	Y27	Z27	X28	Y28	Z28	X29	Y29	Z29	X30	Y30	Z30	X31	Y31	Z31	X32	Y32	Z32	X33	Y33	Z33	X34	Y34	Z34	X35	Y35	Z35	X36	Y36	Z36	X37	Y37	Z37	X38	Y38	Z38	X39	Y39	Z39	X40	Y40	Z40	X41	Y41	Z41	X42	Y42	Z42	X43	Y43	Z43	X44	Y44	Z44	X45	Y45	Z45	X46	Y46	Z46	X47	Y47	Z47	X48	Y48	Z48	X49	Y49	Z49	X50	Y50	Z50	X51	Y51	Z51	X52	Y52	Z52	X53	Y53	Z53	X54	Y54	Z54	X55	Y55	Z55	X56	Y56	Z56	X57	Y57	Z57	X58	Y58	Z58	X59	Y59	Z59	X60	Y60	Z60	X61	Y61	Z61	X62	Y62	Z62	X63	Y63	Z63	X64	Y64	Z64	X65	Y65	Z65	X66	Y66	Z66	X67	Y67	Z67	X68	Y68	Z68	X69	Y69	Z69	

97	0.32000	1077.73755	1351.68628	-13.82300	1110.15186	1177.46155	-23.73395	1028.98047	1395.25208	156.16776	984.92383	1408.29175	-168.30544	942.58972	1421.31885	4.46358	878.46564	1135.71643	-5.53970	895.53772	1332.03064	104.52222	1010.08960	935.55170	88.85175	1018.18494	931.61432	-132.56697	834.51123	952.72009	19.22841	839.44196	956.04517	-79.52534	962.01733	868.64581	-196.77324	917.63684	842.60638	135.48560	938.11737	859.35590	-103.21220	928.87006	862.53864	55.47282	964.56952	164.58418	-130.23601	611.62750	141.36365	30.23917	898.77148	155.30167	-70.28706	539.92883	154.06883	-18.14935	1046.72961	79.10321	-178.39229	683.01532	44.21221	64.72974	1107.47461	96.65803	-118.73036	738.05701	50.83603	-2.08688	934.67871	1136.19580	303.44904	1108.28650	1094.43188	148.11810	1122.61926	1035.20874	190.18709	1186.57227	1092.67468	142.99303	785.87073	1241.93726	-306.84216	929.04742	1036.09900	-274.60583	954.51740	1086.00366	-230.58009	1024.44470	1036.58191	-246.36882	897.95056	748.30243	137.65747	879.98291	658.99207	123.73368	858.80841	572.39551	103.03557	971.13055	793.74402	131.84052	960.00128	694.90253	124.00791	942.46497	606.46759	103.21605	1011.87268	745.32330	82.55727	991.00037	648.41888	67.55822	957.85767	566.30249	43.24684	1000.37354	774.04028	-200.12279	1062.72229	680.52905	-185.61211	1098.19617	612.40070	-170.31856	1028.83447	846.41266	-184.95473	1084.19946	764.02942	-181.44099	1133.01575	686.14911	-165.49599	1086.15967	826.98273	-117.39388	1135.02979	746.12158	-97.53169	1173.24402	662.55054	-90.02818	1116.81177	524.98254	-149.80000	828.01257	473.27243	82.52664	764.03540	381.74985	88.54858	705.00037	297.40250	68.34352	661.36780	226.00479	47.67197	829.78357	383.87833	24.40312	782.43079	318.02539	12.38699	732.45892	250.55211	3.70335	1076.14758	411.72342	-164.82970	1044.15613	340.07132	-157.50291	1011.46277	262.27969	-144.36400	1149.66333	439.67990	-100.95628	1083.58594	1617.18738	-80.53618	967.23340	1599.47681	-91.15868	1084.54956	1614.49353	66.53252	945.26825	1600.44849	74.28110	919.29889	1348.90576	-246.15715	878.78406	1116.44189	-303.21826	960.38098	1215.55188	272.95221	1009.10199	1087.65234	277.14716	
98	0.32333	1086.71521	1353.94885	-14.29944	1119.48706	1179.76636	-24.25308	1038.61865	1397.53650	155.75894	993.25183	1410.38086	-168.13084	951.78796	1423.30750	4.53525	887.97223	1137.73352	-4.93446	905.22260	1334.12378	104.79140	1020.25818	937.50708	88.77718	1027.65161	933.87781	-132.54366	844.49426	955.11340	19.73601	849.13171	958.65820	-78.92101	971.19275	871.39240	-196.58369	927.01862	844.82965	135.69266	947.52216	861.74817	-103.10844	938.77563	864.71893	55.60909	984.26526	160.43675	-128.34404	615.34387	144.40843	31.37454	919.07977	148.87260	-68.03581	544.11877	159.22356	-16.98407	1069.26563	77.99977	-176.61607	684.10876	44.89582	65.06894	1129.58447	98.09250	-117.37776	739.23248	50.71999	-1.76357	944.78900	1138.72302	303.55652	1117.99194	1099.41614	147.11438	1133.09741	1039.97864	188.65269	1196.20117	1098.73376	141.62601	792.95074	1245.16357	-305.80042	936.61481	1039.56372	-274.36432	962.25214	1089.50513	-230.49837	1032.21875	1040.19580	-246.66331	906.23926	750.88660	138.19543	886.88733	661.86072	124.27657	864.40234	575.58484	103.58198	980.06573	795.44000	132.00031	967.45746	696.77393	124.10110	948.54089	608.62097	103.26976	1020.05371	746.61359	82.62189	997.67072	649.86267	67.58489	963.27014	568.14514	43.34016	1009.28345	776.59961	-199.86925	1071.08484	682.75696	-184.98381	1106.15649	614.46338	-169.46114	1038.01880	849.01959	-184.90007	1093.01001	766.31781	-181.17033	1141.34485	688.23181	-165.07527	1095.44946	829.51178	-117.33846	1143.98242	748.47931	-97.33488	1181.90417	664.79913	-89.78413	1124.90991	526.45587	-148.94200	832.07037	476.79910	83.05196	767.53741	385.49356	89.18366	708.46301	301.03918	69.24448	664.95410	229.43509	48.71289	833.45380	387.13043	25.08017	786.11707	321.30014	13.34460	736.18909	253.76375	4.85474	1087.23438	411.40274	-163.94322	1057.65320	338.64047	-156.35774	1027.63684	259.80499	-142.84834	1160.16150	441.64368	-100.42455	1092.39355	1619.13196	-80.98045	976.06787	1601.40308	-91.27446	1093.54700	1616.51404	66.07159	954.31171	1602.44702	73.97761	927.08234	1351.75488	-245.73021	885.98462	1119.85242	-302.71991	970.43579	1218.22205	273.02856	1019.47961	1090.98083	276.58945	
99	0.32667	1095.69556	1356.15527	-14.76617	1128.82739	1182.02075	-24.76080	1048.23792	1399.75574	155.34703	1001.61572	1412.41028	-167.96007	960.98523	1425.23779	4.59372	897.48364	1139.71497	-4.36374	914.90295	1336.16431	105.04356	1030.45166	939.43744	88.69505	1037.13330	936.09814	-132.52995	854.49988	957.46869	20.24673	858.84143	961.22198	-78.31657	980.36188	874.04517	-196.38014	936.44177	847.04016	135.91759	956.94708	864.09631	-103.00105	948.70923	866.86780	55.74730	1003.99097	156.47350	-126.45250	619.22107	147.51468	32.53519	939.47906	142.66698	-65.79506	548.51648	164.46153	-15.79034	1091.72388	77.16234	-174.82573	685.28314	45.68176	65.41773	1151.51355	99.78333	-116.00606	740.47021	50.67500	-1.43141	954.84143	1141.20203	303.66269	1127.60303	1104.18640	146.15619	1143.45435	1044.56287	187.19498	1205.72327	1104.54492	140.32581	800.09924	1248.27893	-304.74597	944.25726	1042.92957	-274.10736	970.06787	1092.91199	-230.41081	1040.06763	1043.71057	-246.96715	914.60529	753.46503	138.76790	893.91162	664.72296	124.85374	870.15594	578.77679	104.16221	989.04810	797.13525	132.18481	974.99829	698.66071	124.23270	954.74518	610.79297	103.36647	1028.30957	747.91968	82.73238	1004.46057	651.33319	67.66895	968.83319	570.01788	43.48529	1018.13092	779.03552	-199.59724	1079.31079	684.81714	-184.34480	1113.94543	616.34039	-168.59731	1047.18945	851.49481	-184.85670	1101.75281	768.42242	-180.92461	1149.54553	690.09875	-164.68007	1104.76025	831.87292	-117.32939	1152.91138	750.63678	-97.19121	1190.47876	666.82513	-89.59285	1132.86487	527.74695	-148.08864	836.32336	480.33975	83.60352	771.22827	389.26108	89.83302	712.11176	304.69952	70.16939	668.72168	232.88959	49.77962	837.32349	390.39368	25.77916	789.99792	324.58847	14.32892	740.10327	256.99301	6.03189	1098.24597	410.99802	-163.05785	1071.09985	337.20044	-155.20955	1043.78369	257.40964	-141.33546	1170.50891	443.49319	-99.89723	1101.20288	1621.01587	-81.42241	984.90680	1603.26587	-91.38930	1102.54297	1618.47192	65.61219	963.35431	1604.38123	73.67101	934.91919	1354.53027	-245.30693	893.26019	1123.16125	-302.20563	980.45166	1220.84033	273.09842	1029.76758	1094.21960	276.05945	
100	0.33000	1104.67847	1358.29883	-15.22282	1138.17090	1184.21826	-25.25587	1057.83728	1401.90454	154.93260	1010.01477	1414.37378	-167.79396	970.17981	1427.10364	4.63896	906.99786	1141.65540	-3.82835	924.57660	1338.14612	105.27878	1040.66565	941.33850	88.60641	1046.62842	938.26752	-132.52400	864.52441	959.77972	20.75891	868.56848	963.72913	-77.71416	989.52515	876.59290	-196.16237	945.90521	849.23132	136.16061	966.39050	866.39276	-102.88844	958.66687	868.97992	55.88885	1023.72180	152.70647	-124.56435	623.25372	150.67935	33.71809	959.93811	136.70157	-63.57027	553.11700	169.77161	-14.56998	1114.07617	76.59160	-173.02144	686.54132	46.57653	65.77673	1173.23486	101.72337	-114.61293	741.77313	50.70668	-1.08888	964.83789	1143.62634	303.76871	1137.12671	1108.73267	145.24406	1153.69385	1048.94934	185.81494	1215.14746	1110.09216	139.09213	807.31567	1251.27856	-303.68225	951.97388	1046.19226	-273.83661	977.96240	1096.21985	-230.31868	1047.98975	1047.12195	-247.27992	923.04968	756.02863	139.37218	901.05994	667.56702	125.46169	876.07550	581.95770	104.77291	998.07715	798.82324	132.39133	982.62744	700.55371	124.39944	961.08484	612.97211	103.50383	1036.64038	749.23468	82.88518	1011.37354	652.82220	67.80597	974.55353	571.91040	43.67868	1026.91711	781.33801	-199.30690	1087.40649	686.70258	-183.69826	1121.57483	618.02728	-167.73116	1056.34644	853.82764	-184.82451	1110.43018	770.33521	-180.70512	1157.62390	691.74463	-164.31026	1114.09045	834.05560	-117.36665	1161.81677	752.58514	-97.10023	1198.96973	668.62207	-89.45201	1140.69043	528.85480	-147.23900	840.77911	483.87885	84.17912	775.11389	393.03848	90.49432	715.94910	308.37265	71.11496	672.66919	236.36040	50.86838	841.39758	393.65335	26.49687	794.07446	327.87787	15.33571	744.19940	260.23007	7.23003	1109.18799	410.51352	-162.17195	1084.49292	335.75778	-154.05748	1059.89001	255.10175	-139.82613	1180.71228	445.22699	-99.36940	1110.01440	1622.83301	-81.86143	993.74976	1605.05957	-91.50557	1111.53711	1620.36133	65.15491	972.39563	1606.24524	73.36164	942.80841	1357.22583	-244.88908	900.61078	1126.36426	-301.67743	990.43066	1223.39856	273.16211	1039.96790	1097.35852	275.55893	
101	0.33333	1113.66309	1360.37329	-15.66904	1147.51587	1186.35229	-25.73730	1067.41589	1403.97791	154.51631	1018.44824	1416.26526	-167.63347	979.37012	1428.89954	4.67091	916.51312	1143.54932	-3.32890	934.24115	1340.06360	105.49700	1050.89526	943.20593	88.51221	1056.13501	940.37762	-132.52412	874.56396	962.04010	21.27095	878.30981	966.17206	-77.11559	998.68311	879.02460	-195.93037	955.40808	851.39630	136.42181	975.85022	868.62933	-102.76903	968.64471	871.05017	56.03526	1043.43091	149.14635	-122.68245	627.43567	153.89943	34.92030	980.42346	130.99156	-61.36656	557.91412	175.14250	-13.32492	1136.29297	76.28566	-171.20323	687.88611	47.58614	66.14670	1194.72083	103.90296	-113.19627	743.14392	50.82053	-0.73430	974.78027	1145.98926	303.87555	1146.56946	1113.04553	144.37856	1163.81934	1053.12671	184.51355	1224.48254	1115.36035	137.92444	814.59943	1254.15796	-302.61261	959.76367	1049.34741	-273.55389	985.93353	1099.42456	-230.22328	1055.98328	1050.42615	-247.60100	931.57336	758.56799	140.00494	908.33594	670.38098	126.09650	882.16687	585.11346	105.41058	1007.15308	800.49738	132.61679	990.34900	702.44379	124.59784	967.56659	615.14673	103.67932	1045.04639	750.55151	83.07624	1018.41309	654.32135	67.99106	980.43799	573.81226	43.91667	1035.64392	783.49768	-198.99870	1095.38000	688.40765	-183.04768	1129.05872	619.52094	-166.86699	1065.48987	856.00818	-184.80312	1119.04492	772.04919	-180.51292	1165.58765	693.16583	-163.96559	1123.43860	836.04999	-117.44984	1170.69873	754.31683	-97.06090	1207.37878	670.18463	-89.35838	1148.40161	529.78015	-146.39232	845.44501	487.40030	84.77675	779.20007	396.81140	91.16561	719.97705	312.04770	72.07806	676.79437	239.83989	51.97557	845.68079	396.89441	27.23038	798.34735	331.15567	16.36095	748.47473	263.46530	8.44440	1120.06567	409.95459	-161.28368	1097.82825	334.31934	-152.90044	1075.94177	252.88902	-138.32094	1190.77881	446.84436	-98.83553	1118.82800	1624.57813	-82.29704	1002.59607	1606.77954	-91.62611	1120.52930	1622.17651	64.70026	981.43530	1608.03381	73.04971	950.74908	1359.83533	-244.47865	908.03638	1129.45740	-301.13727	1000.37433	1225.88940	273.21979	1050.08276	1100.38818	275.08945	
